<svg width="1920" height="640" viewBox="0 0 1920 640" fill="none" xmlns="http://www.w3.org/2000/svg" role="img" aria-labelledby="title desc">
  <title id="title">Fundarc banner</title>
  <desc id="desc">A wide brand banner for Fundarc, a stablecoin milestone crowdfunding platform on Arc Testnet.</desc>
  <rect width="1920" height="640" fill="#07130F"/>
  <path d="M0 0H1920V640H0V0Z" fill="url(#bg)"/>
  <path d="M-120 494C157 311 407 224 631 232C855 240 1033 342 1205 433C1400 536 1588 623 1900 462" stroke="#36D399" stroke-opacity="0.22" stroke-width="54" stroke-linecap="round"/>
  <path d="M-84 555C211 356 466 266 681 285C896 304 1046 423 1216 502C1408 591 1623 603 2000 354" stroke="#F6C860" stroke-opacity="0.22" stroke-width="34" stroke-linecap="round"/>
  <g opacity="0.72">
    <circle cx="1432" cy="140" r="5" fill="#9BE7C3"/>
    <circle cx="1510" cy="206" r="4" fill="#F6C860"/>
    <circle cx="1608" cy="126" r="6" fill="#36D399"/>
    <circle cx="1708" cy="220" r="4" fill="#9BE7C3"/>
    <circle cx="1784" cy="144" r="5" fill="#F6C860"/>
    <path d="M1432 140L1510 206L1608 126L1708 220L1784 144" stroke="#9BE7C3" stroke-opacity="0.28" stroke-width="2"/>
  </g>
  <g transform="translate(136 116)">
    <rect width="408" height="408" rx="92" fill="#0E241B"/>
    <rect x="1.5" y="1.5" width="405" height="405" rx="90.5" stroke="#9BE7C3" stroke-opacity="0.22" stroke-width="3"/>
    <path d="M77 220C104 132 153 84 204 84C255 84 304 132 331 220" stroke="#36D399" stroke-width="38" stroke-linecap="round"/>
    <path d="M117 220C141 164 173 139 204 139C235 139 267 164 291 220" stroke="#F6C860" stroke-width="25" stroke-linecap="round"/>
    <path d="M204 282C138 258 96 204 96 137V98L204 54L312 98V137C312 204 270 258 204 282Z" fill="#112C21"/>
    <path d="M204 282C138 258 96 204 96 137V98L204 54L312 98V137C312 204 270 258 204 282Z" stroke="#9BE7C3" stroke-width="18" stroke-linejoin="round"/>
    <path d="M169 176C169 205 190 223 224 223C255 223 275 209 275 185C275 160 257 150 224 144C204 140 195 136 195 126C195 117 203 111 218 111C234 111 243 118 245 131H270C267 104 247 88 222 85V61H194V86C165 92 147 109 147 132C147 157 165 169 197 175C217 179 226 183 226 193C226 202 217 207 201 207C183 207 172 197 170 176H169Z" fill="#F6C860"/>
    <path d="M91 333H317" stroke="#9BE7C3" stroke-opacity="0.78" stroke-width="20" stroke-linecap="round"/>
    <circle cx="127" cy="333" r="21" fill="#36D399"/>
    <circle cx="204" cy="333" r="21" fill="#F6C860"/>
    <circle cx="281" cy="333" r="21" fill="#36D399"/>
  </g>
  <g transform="translate(612 154)">
    <text x="0" y="116" fill="#F8FFF9" font-family="Inter, ui-sans-serif, system-ui, -apple-system, BlinkMacSystemFont, Segoe UI, sans-serif" font-size="116" font-weight="800" letter-spacing="0">Fundarc</text>
    <text x="4" y="178" fill="#9BE7C3" font-family="Inter, ui-sans-serif, system-ui, -apple-system, BlinkMacSystemFont, Segoe UI, sans-serif" font-size="34" font-weight="600" letter-spacing="0">Milestone-based stablecoin crowdfunding on Arc</text>
    <g transform="translate(4 232)">
      <rect width="174" height="52" rx="26" fill="#123126" stroke="#36D399" stroke-opacity="0.52"/>
      <text x="30" y="35" fill="#DFFFF0" font-family="Inter, ui-sans-serif, system-ui, sans-serif" font-size="21" font-weight="700">USDC rails</text>
      <rect x="198" width="244" height="52" rx="26" fill="#123126" stroke="#F6C860" stroke-opacity="0.52"/>
      <text x="228" y="35" fill="#FFF4CE" font-family="Inter, ui-sans-serif, system-ui, sans-serif" font-size="21" font-weight="700">Contributor voting</text>
      <rect x="466" width="210" height="52" rx="26" fill="#123126" stroke="#36D399" stroke-opacity="0.52"/>
      <text x="496" y="35" fill="#DFFFF0" font-family="Inter, ui-sans-serif, system-ui, sans-serif" font-size="21" font-weight="700">Refund safety</text>
    </g>
  </g>
  <g transform="translate(1374 378)">
    <rect x="0" y="0" width="392" height="118" rx="28" fill="#0E241B" stroke="#9BE7C3" stroke-opacity="0.18"/>
    <path d="M44 74H348" stroke="#9BE7C3" stroke-opacity="0.44" stroke-width="8" stroke-linecap="round"/>
    <circle cx="91" cy="74" r="19" fill="#36D399"/>
    <circle cx="196" cy="74" r="19" fill="#F6C860"/>
    <circle cx="301" cy="74" r="19" fill="#36D399"/>
    <text x="44" y="42" fill="#DFFFF0" font-family="Inter, ui-sans-serif, system-ui, sans-serif" font-size="21" font-weight="700">fund -> vote -> unlock</text>
  </g>
  <defs>
    <linearGradient id="bg" x1="0" y1="0" x2="1920" y2="640" gradientUnits="userSpaceOnUse">
      <stop stop-color="#07130F"/>
      <stop offset="0.48" stop-color="#0B1F18"/>
      <stop offset="1" stop-color="#142C22"/>
    </linearGradient>
  </defs>
</svg>
